<mxfile host="app.diagrams.net" agent="Mozilla/5.0 (Windows NT 10.0; Win64; x64) AppleWebKit/537.36 (KHTML, like Gecko) Chrome/141.0.0.0 Safari/537.36" version="28.2.7">
  <diagram name="Page-1" id="t2dd81MidffATKvto3Pq">
    <mxGraphModel dx="868" dy="439" grid="1" gridSize="10" guides="1" tooltips="1" connect="1" arrows="1" fold="1" page="1" pageScale="1" pageWidth="850" pageHeight="1100" math="0" shadow="0">
      <root>
        <mxCell id="0" />
        <mxCell id="1" parent="0" />
        <mxCell id="Aea7daFOpwfqS7LJveI--1" value="Total Requests Logged" style="rounded=1;whiteSpace=wrap;html=1;" vertex="1" parent="1">
          <mxGeometry x="160" y="160" width="110" height="90" as="geometry" />
        </mxCell>
        <mxCell id="Aea7daFOpwfqS7LJveI--3" value="Unique Users Active" style="rounded=1;whiteSpace=wrap;html=1;" vertex="1" parent="1">
          <mxGeometry x="300" y="160" width="110" height="90" as="geometry" />
        </mxCell>
        <mxCell id="Aea7daFOpwfqS7LJveI--4" value="Average Execution Time" style="rounded=1;whiteSpace=wrap;html=1;" vertex="1" parent="1">
          <mxGeometry x="430" y="160" width="110" height="90" as="geometry" />
        </mxCell>
        <mxCell id="Aea7daFOpwfqS7LJveI--5" value="Failed Requests (%)" style="rounded=1;whiteSpace=wrap;html=1;" vertex="1" parent="1">
          <mxGeometry x="560" y="160" width="110" height="90" as="geometry" />
        </mxCell>
        <mxCell id="Aea7daFOpwfqS7LJveI--8" value="&lt;font style=&quot;font-size: 19px;&quot;&gt;&lt;b&gt;Audit Log Dashboard&lt;/b&gt;&lt;/font&gt;" style="rounded=1;whiteSpace=wrap;html=1;fillColor=#dae8fc;strokeColor=#6c8ebf;" vertex="1" parent="1">
          <mxGeometry x="270" y="20" width="290" height="60" as="geometry" />
        </mxCell>
      </root>
    </mxGraphModel>
  </diagram>
</mxfile>
